TITLE "Populous The Beginning"
PERFORMER "MrTojake"
FILE "https://www.youtube.com/watch?v=Qs02P3Rhd0U" MP3
  TRACK 01 AUDIO
    TITLE "Theme 1"
    INDEX 01 00:00:00
  TRACK 02 AUDIO
    TITLE "Theme 2"
    INDEX 01 03:52:00
  TRACK 03 AUDIO
    TITLE "Theme 3"
    INDEX 01 09:18:00
  TRACK 04 AUDIO
    TITLE "Theme 4"
    INDEX 01 14:03:00
  TRACK 05 AUDIO
    TITLE "Theme 5"
    INDEX 01 19:13:00
